<svg xmlns="http://www.w3.org/2000/svg" viewBox="0 0 900 550">
  <defs>
    <linearGradient id="bgGrad7" x1="0%" y1="0%" x2="100%" y2="100%">
      <stop offset="0%" style="stop-color:#0f172a"/>
      <stop offset="100%" style="stop-color:#1e293b"/>
    </linearGradient>
    <filter id="shadow7" x="-20%" y="-20%" width="140%" height="140%">
      <feDropShadow dx="0" dy="3" stdDeviation="5" flood-color="#000" flood-opacity="0.4"/>
    </filter>
  </defs>
  
  <!-- Background -->
  <rect width="900" height="550" fill="url(#bgGrad7)"/>
  
  <!-- Subtle grid -->
  <pattern id="grid7" width="30" height="30" patternUnits="userSpaceOnUse">
    <path d="M 30 0 L 0 0 0 30" fill="none" stroke="#334155" stroke-width="0.3" opacity="0.3"/>
  </pattern>
  <rect width="900" height="550" fill="url(#grid7)"/>
  
  <!-- Title -->
  <text x="450" y="45" text-anchor="middle" fill="#f8fafc" font-family="Segoe UI, sans-serif" font-size="26" font-weight="bold">TECHNOLOGY STACK</text>
  <text x="450" y="70" text-anchor="middle" fill="#64748b" font-family="Segoe UI, sans-serif" font-size="13">~82,000+ Lines of Code Across 4 Components</text>
  
  <!-- ========== BACKEND COLUMN ========== -->
  <g filter="url(#shadow7)">
    <rect x="30" y="100" width="200" height="420" rx="12" fill="#1e293b" stroke="#10b981" stroke-width="2"/>
    <rect x="30" y="100" width="200" height="50" rx="12" fill="#10b981"/>
    <rect x="30" y="138" width="200" height="12" fill="#1e293b"/>
    <text x="130" y="132" text-anchor="middle" fill="#fff" font-family="Segoe UI, sans-serif" font-size="16" font-weight="bold">BACKEND</text>
    <text x="130" y="175" text-anchor="middle" fill="#6ee7b7" font-family="Segoe UI, sans-serif" font-size="12">~15,000 LOC</text>
    
    <!-- Tech items -->
    <rect x="50" y="195" width="160" height="30" rx="6" fill="#134e4a"/>
    <text x="130" y="215" text-anchor="middle" fill="#5eead4" font-family="Segoe UI, sans-serif" font-size="11">Python 3.11+</text>
    
    <rect x="50" y="235" width="160" height="30" rx="6" fill="#134e4a"/>
    <text x="130" y="255" text-anchor="middle" fill="#5eead4" font-family="Segoe UI, sans-serif" font-size="11">FastAPI 0.109</text>
    
    <rect x="50" y="275" width="160" height="30" rx="6" fill="#134e4a"/>
    <text x="130" y="295" text-anchor="middle" fill="#5eead4" font-family="Segoe UI, sans-serif" font-size="11">SQLAlchemy 2.0</text>
    
    <rect x="50" y="315" width="160" height="30" rx="6" fill="#134e4a"/>
    <text x="130" y="335" text-anchor="middle" fill="#5eead4" font-family="Segoe UI, sans-serif" font-size="11">PostgreSQL 15</text>
    
    <rect x="50" y="355" width="160" height="30" rx="6" fill="#134e4a"/>
    <text x="130" y="375" text-anchor="middle" fill="#5eead4" font-family="Segoe UI, sans-serif" font-size="11">Redis 7</text>
    
    <rect x="50" y="395" width="160" height="30" rx="6" fill="#134e4a"/>
    <text x="130" y="415" text-anchor="middle" fill="#5eead4" font-family="Segoe UI, sans-serif" font-size="11">JWT / Argon2id</text>
    
    <rect x="50" y="435" width="160" height="30" rx="6" fill="#134e4a"/>
    <text x="130" y="455" text-anchor="middle" fill="#5eead4" font-family="Segoe UI, sans-serif" font-size="11">Docker Compose</text>
    
    <text x="130" y="495" text-anchor="middle" fill="#475569" font-family="Segoe UI, sans-serif" font-size="10">80+ files • 32 models</text>
  </g>
  
  <!-- ========== FRONTEND COLUMN ========== -->
  <g filter="url(#shadow7)">
    <rect x="250" y="100" width="200" height="420" rx="12" fill="#1e293b" stroke="#3b82f6" stroke-width="2"/>
    <rect x="250" y="100" width="200" height="50" rx="12" fill="#3b82f6"/>
    <rect x="250" y="138" width="200" height="12" fill="#1e293b"/>
    <text x="350" y="132" text-anchor="middle" fill="#fff" font-family="Segoe UI, sans-serif" font-size="16" font-weight="bold">FRONTEND</text>
    <text x="350" y="175" text-anchor="middle" fill="#93c5fd" font-family="Segoe UI, sans-serif" font-size="12">~15,000 LOC</text>
    
    <!-- Tech items -->
    <rect x="270" y="195" width="160" height="30" rx="6" fill="#1e3a5f"/>
    <text x="350" y="215" text-anchor="middle" fill="#7dd3fc" font-family="Segoe UI, sans-serif" font-size="11">Next.js 14</text>
    
    <rect x="270" y="235" width="160" height="30" rx="6" fill="#1e3a5f"/>
    <text x="350" y="255" text-anchor="middle" fill="#7dd3fc" font-family="Segoe UI, sans-serif" font-size="11">TypeScript 5</text>
    
    <rect x="270" y="275" width="160" height="30" rx="6" fill="#1e3a5f"/>
    <text x="350" y="295" text-anchor="middle" fill="#7dd3fc" font-family="Segoe UI, sans-serif" font-size="11">TanStack Query v5</text>
    
    <rect x="270" y="315" width="160" height="30" rx="6" fill="#1e3a5f"/>
    <text x="350" y="335" text-anchor="middle" fill="#7dd3fc" font-family="Segoe UI, sans-serif" font-size="11">Tailwind CSS 3.4</text>
    
    <rect x="270" y="355" width="160" height="30" rx="6" fill="#1e3a5f"/>
    <text x="350" y="375" text-anchor="middle" fill="#7dd3fc" font-family="Segoe UI, sans-serif" font-size="11">shadcn/ui</text>
    
    <rect x="270" y="395" width="160" height="30" rx="6" fill="#1e3a5f"/>
    <text x="350" y="415" text-anchor="middle" fill="#7dd3fc" font-family="Segoe UI, sans-serif" font-size="11">React Hook Form</text>
    
    <rect x="270" y="435" width="160" height="30" rx="6" fill="#1e3a5f"/>
    <text x="350" y="455" text-anchor="middle" fill="#7dd3fc" font-family="Segoe UI, sans-serif" font-size="11">i18next (KO/EN)</text>
    
    <text x="350" y="495" text-anchor="middle" fill="#475569" font-family="Segoe UI, sans-serif" font-size="10">129 components • 30 hooks</text>
  </g>
  
  <!-- ========== DESKTOP CLIENT COLUMN ========== -->
  <g filter="url(#shadow7)">
    <rect x="470" y="100" width="200" height="420" rx="12" fill="#1e293b" stroke="#8b5cf6" stroke-width="2"/>
    <rect x="470" y="100" width="200" height="50" rx="12" fill="#8b5cf6"/>
    <rect x="470" y="138" width="200" height="12" fill="#1e293b"/>
    <text x="570" y="132" text-anchor="middle" fill="#fff" font-family="Segoe UI, sans-serif" font-size="16" font-weight="bold">DESKTOP</text>
    <text x="570" y="175" text-anchor="middle" fill="#c4b5fd" font-family="Segoe UI, sans-serif" font-size="12">~12,000 LOC</text>
    
    <!-- Tech items -->
    <rect x="490" y="195" width="160" height="30" rx="6" fill="#3b2e5a"/>
    <text x="570" y="215" text-anchor="middle" fill="#c4b5fd" font-family="Segoe UI, sans-serif" font-size="11">C++17</text>
    
    <rect x="490" y="235" width="160" height="30" rx="6" fill="#3b2e5a"/>
    <text x="570" y="255" text-anchor="middle" fill="#c4b5fd" font-family="Segoe UI, sans-serif" font-size="11">Visual Studio 2022</text>
    
    <rect x="490" y="275" width="160" height="30" rx="6" fill="#3b2e5a"/>
    <text x="570" y="295" text-anchor="middle" fill="#c4b5fd" font-family="Segoe UI, sans-serif" font-size="11">DirectX 11</text>
    
    <rect x="490" y="315" width="160" height="30" rx="6" fill="#3b2e5a"/>
    <text x="570" y="335" text-anchor="middle" fill="#c4b5fd" font-family="Segoe UI, sans-serif" font-size="11">Dear ImGui</text>
    
    <rect x="490" y="355" width="160" height="30" rx="6" fill="#3b2e5a"/>
    <text x="570" y="375" text-anchor="middle" fill="#c4b5fd" font-family="Segoe UI, sans-serif" font-size="11">WinHTTP</text>
    
    <rect x="490" y="395" width="160" height="30" rx="6" fill="#3b2e5a"/>
    <text x="570" y="415" text-anchor="middle" fill="#c4b5fd" font-family="Segoe UI, sans-serif" font-size="11">AES-256-GCM</text>
    
    <rect x="490" y="435" width="160" height="30" rx="6" fill="#3b2e5a"/>
    <text x="570" y="455" text-anchor="middle" fill="#c4b5fd" font-family="Segoe UI, sans-serif" font-size="11">ECDSA P-256</text>
    
    <text x="570" y="495" text-anchor="middle" fill="#475569" font-family="Segoe UI, sans-serif" font-size="10">40+ files • Windows native</text>
  </g>
  
  <!-- ========== CLIENT MODULE COLUMN ========== -->
  <g filter="url(#shadow7)">
    <rect x="690" y="100" width="200" height="420" rx="12" fill="#1e293b" stroke="#f59e0b" stroke-width="2"/>
    <rect x="690" y="100" width="200" height="50" rx="12" fill="#f59e0b"/>
    <rect x="690" y="138" width="200" height="12" fill="#1e293b"/>
    <text x="790" y="132" text-anchor="middle" fill="#fff" font-family="Segoe UI, sans-serif" font-size="16" font-weight="bold">CLIENT MODULE</text>
    <text x="790" y="175" text-anchor="middle" fill="#fcd34d" font-family="Segoe UI, sans-serif" font-size="12">~40,000 LOC</text>
    
    <!-- Tech items -->
    <rect x="710" y="195" width="160" height="30" rx="6" fill="#78350f"/>
    <text x="790" y="215" text-anchor="middle" fill="#fcd34d" font-family="Segoe UI, sans-serif" font-size="11">C++20</text>
    
    <rect x="710" y="235" width="160" height="30" rx="6" fill="#78350f"/>
    <text x="790" y="255" text-anchor="middle" fill="#fcd34d" font-family="Segoe UI, sans-serif" font-size="11">Visual Studio 2022</text>
    
    <rect x="710" y="275" width="160" height="30" rx="6" fill="#78350f"/>
    <text x="790" y="295" text-anchor="middle" fill="#fcd34d" font-family="Segoe UI, sans-serif" font-size="11">Dear ImGui</text>
    
    <rect x="710" y="315" width="160" height="30" rx="6" fill="#78350f"/>
    <text x="790" y="335" text-anchor="middle" fill="#fcd34d" font-family="Segoe UI, sans-serif" font-size="11">Lua C API</text>
    
    <rect x="710" y="355" width="160" height="30" rx="6" fill="#78350f"/>
    <text x="790" y="375" text-anchor="middle" fill="#fcd34d" font-family="Segoe UI, sans-serif" font-size="11">simdjson</text>
    
    <rect x="710" y="395" width="160" height="30" rx="6" fill="#78350f"/>
    <text x="790" y="415" text-anchor="middle" fill="#fcd34d" font-family="Segoe UI, sans-serif" font-size="11">DirectX 11 Overlay</text>
    
    <rect x="710" y="435" width="160" height="30" rx="6" fill="#78350f"/>
    <text x="790" y="455" text-anchor="middle" fill="#fcd34d" font-family="Segoe UI, sans-serif" font-size="11">HTTP Client</text>
    
    <text x="790" y="495" text-anchor="middle" fill="#475569" font-family="Segoe UI, sans-serif" font-size="10">80+ files • 40+ Lua funcs</text>
  </g>
</svg>
